# xmcd
#
# Track frame offsets: 
#        150
#        19410
#        44545
#        62120
#        74140
#        90580
#        107265
#        125223
#        145405
#        166230
#
# Disc length: 2690 seconds
#
# Revision: 4
# Processed by: cddbd v1.5.2PL0 Copyright (c) Steve Scherf et al.
# Submitted via: ExactAudioCopy v0.90b4
#
DISCID=950a800a
DTITLE=Alabama - The Touch
DYEAR=1986
DGENRE=Country
TTITLE0=You've Got The Touch
TTITLE1=Vacation
TTITLE2=True, True Housewife
TTITLE3=Is This How Love Begins
TTITLE4=Cruisin'
TTITLE5=Touch Me When We're Dancing
TTITLE6=Let's Hear It For The Girl
TTITLE7=It's All Comin' Back To Me Now
TTITLE8=I Taught her Everything She Knows
TTITLE9=Pony Express
EXTD=Originally Released 1986\nCD Edition Released 1987 ??\n\nAMG EXPE
EXTD=RT REVIEW: Although the album has a couple of worthwhile songs, p
EXTD=articularly the title track, The Touch is the weakest record Alab
EXTD=ama had put out to date. It follows the same formula as the band'
EXTD=s previous records, but there isn't enough melody or hooks to mak
EXTD=e the album memorable.  -- Stephen Thomas Erlewine\n\nAMAZON.COM 
EXTD=CUSTOMER REVIEW\nN/A\n\nHalf.com Details \nProducer: Alabama, Har
EXTD=old Shedd 
EXTT0=
EXTT1=
EXTT2=
EXTT3=
EXTT4=
EXTT5=
EXTT6=
EXTT7=
EXTT8=
EXTT9=
PLAYORDER=
